<?xml version="1.0" standalone="no"?><!DOCTYPE svg PUBLIC "-//W3C//DTD SVG 1.1//EN" "http://www.w3.org/Graphics/SVG/1.1/DTD/svg11.dtd"><svg t="1674113033359" class="icon" viewBox="0 0 1024 1024" version="1.1" xmlns="http://www.w3.org/2000/svg" p-id="3330" data-spm-anchor-id="a313x.7781069.0.i1" width="128" height="128" xmlns:xlink="http://www.w3.org/1999/xlink"><path d="M628.830227 651.325084l-50.898768-29.588611 8.278454-4.796591 50.927663 29.588611-8.307349 4.796591zM450.012726 783.838142l-50.913216-29.588611 8.292902-4.796591 50.913216 29.588611-8.292902 4.796591z" fill="#2c2c2c" p-id="3331"></path><path d="M608.314686 919.84751l-50.913216-29.574163-63.670415-452.035385 50.898768 29.588611 63.684863 452.020937z" fill="#2c2c2c" p-id="3332"></path><path d="M637.137576 646.528493l-50.927663-29.588611 72.859066-500.131326 50.913216 29.588611-72.844619 500.131326z" fill="#2c2c2c" p-id="3333"></path><path d="M709.982195 146.397167l-50.913216-29.588611c0.144476-0.924644 0.274504-1.849288 0.404531-2.745038l50.898769 29.588612c-0.115581 0.895749-0.245609 1.805946-0.390084 2.745037" fill="#2c2c2c" p-id="3334"></path><path d="M710.372279 143.65213L659.47351 114.135756q2.976198-22.884942-6.515851-28.302778l50.913216 29.588612q9.477602 5.432284 6.501404 28.302778" fill="#2c2c2c" p-id="3335"></path><path d="M458.305628 779.041551l-50.913216-29.588611 68.770405-435.897457 50.913216 29.588612-68.770405 435.897456z" fill="#2c2c2c" p-id="3336"></path><path d="M665.815991 125.794941l-50.913216-29.588612-0.086685-27.089182 50.913216 29.588611 0.086685 27.089183z" fill="#2c2c2c" p-id="3337"></path><path d="M665.729306 98.705758l-50.913216-29.588611L734.528606 0l50.913216 29.588611-119.712516 69.117147z" fill="#2c2c2c" p-id="3338"></path><path d="M527.076033 343.144095l-50.913216-29.588612-13.089493-92.811151 50.913216 29.588611 13.089493 92.811152z" fill="#2c2c2c" p-id="3339"></path><path d="M513.98654 250.332943l-50.913216-29.588611q0-16.296852-7.88837-20.862283l50.913216 29.588611q7.845027 4.56543 7.88837 20.862283" fill="#2c2c2c" p-id="3340"></path><path d="M473.865655 209.475232l-50.913216-29.588612 135.908235-78.46472L609.77389 131.010511l-135.908235 78.464721z" fill="#2c2c2c" p-id="3341"></path><path d="M473.95234 236.564414l-50.913216-29.588611-0.086685-27.089183 50.913216 29.588612 0.086685 27.089182z" fill="#2c2c2c" p-id="3342"></path><path d="M427.936848 1024L377.023632 994.411389 278.751302 327.165089l50.913215 29.588611 98.272331 667.2463z" fill="#2c2c2c" p-id="3343"></path><path d="M329.664517 356.7537l-50.913215-29.588611c0-12.265982-2.080449-20.313275-6.096872-24.14188a9.578735 9.578735 0 0 0-1.777051-1.343623l50.898768 29.588611a9.217546 9.217546 0 0 1 1.791498 1.343623c4.016423 3.828604 6.067977 11.86145 6.096872 24.14188" fill="#2c2c2c" p-id="3344"></path><path d="M289.456947 343.086304L238.543731 313.497693 238.471493 286.408511l50.913216 29.588611 0.072238 27.089182z" fill="#2c2c2c" p-id="3345"></path><path d="M785.441822 29.588611l0.086685 27.089183-15.993453 9.231993q-7.975055 4.594325-17.943875 19.590897t-13.884109 40.294257l-105.813959 780.442964-23.563977 13.609605-63.699311-452.020937-8.292901 4.782144-84.836097 537.781678-23.563977 13.609605-98.243435-667.2463c0-12.280429-2.080449-20.313275-6.096873-24.14188s-10.113295-3.424073-18.059455 1.213596l-16.051243 9.260888v-27.10363l140.141371-80.906359 0.072238 27.089183-12.005926 6.934831q-16.022349 9.246441-23.997404 23.116102t-7.931712 32.232516l64.363898 459.432538 8.292902-4.796591 68.770405-435.897457-13.089493-92.811151q0-18.420644-10.113295-21.844717t-17.987218 1.155805l-12.03482 6.87704-0.101133-27.074735L609.77389 131.010511l0.086685 27.089183-12.020373 6.934831q-16.022349 9.246441-21.989193 21.916954t-5.923501 31.091158l58.917167 433.282447 8.292901-4.796591 72.844619-500.131326q3.929737-25.312132-6.11132-31.047815t-26.005615 3.510758l-12.005926 6.934831-0.086686-27.089183z" fill="#2c2c2c" p-id="3346"></path><path d="M289.384709 315.997122L238.471493 286.408511l140.126924-80.906359 50.913216 29.588611-140.126924 80.906359z" fill="#2c2c2c" p-id="3347"></path></svg>